<?xml version="1.0" encoding="utf-8"?>
<svg version="1.1" xmlns="http://www.w3.org/2000/svg" xmlns:xlink="http://www.w3.org/1999/xlink" x="0px" y="0px"
	 width="900px" height="900px">
	 <g transform="translate(450,450)"><g><g class="sector" visibility="hidden"><path class="arc1" d="M3.4443191226019308e-15,-56.25A56.25,56.25 0 1,1 -13.988806153023111,-54.48280281348549L-1.2434494358242765,-4.8429158056431545A5,5 0 1,0 3.061616997868383e-16,-5Z" style="stroke: rgb(0, 0, 0);"></path><path class="arc2" d="M-13.988806153023111,-54.48280281348549A56.25,56.25 0 0,1 -13.988806153023111,-54.48280281348549L-1.2434494358242765,-4.8429158056431545A5,5 0 0,0 -1.2434494358242765,-4.8429158056431545Z" style="stroke: rgb(0, 0, 0); fill-opacity: 0.15;"></path><path class="arc_for_label" id="SystemUWidget_r.arc_for_label" d="M2.189056153475894e-15,-35.75A35.75,35.75 0 1,1 -8.890663466143577,-34.62684801034856" style="stroke-opacity: 0; fill-opacity: 0;"></path><text class="sector_nonleaf_text"><textPath class="sector_label_path" position-in-sector="center" font-size="26.666666666666668" xmlns:xlink="http://www.w3.org/1999/xlink" xlink:href="#SystemUWidget_r.arc_for_label" startOffset="65.38346792750102">root</textPath></text></g><g class="sector" visibility="hidden"><path class="arc1" d="M6.8886382452038615e-15,-112.5A112.5,112.5 0 1,1 -79.53178664203855,79.56723517582635L-43.300639393998765,43.319939151283236A61.25,61.25 0 1,0 3.7504808223887694e-15,-61.25Z" style="stroke: rgb(20, 80, 121); fill: rgb(27, 107, 162);"></path><path class="arc2" d="M-79.53178664203855,79.56723517582635A112.5,112.5 0 0,1 -79.53178664203855,79.56723517582635L-43.300639393998765,43.319939151283236A61.25,61.25 0 0,0 -43.300639393998765,43.319939151283236Z" style="stroke: rgb(20, 80, 121); fill: rgb(27, 107, 162); fill-opacity: 0.15;"></path><path class="arc_for_label" id="SystemUWidget_personality.arc_for_label" d="M5.842585770932165e-15,-95.41666666666667A95.41666666666667,95.41666666666667 0 1,1 -67.45473755935862,67.48480316764531" style="stroke-opacity: 0; fill-opacity: 0;"></path><text class="sector_nonleaf_text" visibility="visible"><textPath class="sector_label_path" position-in-sector="center" font-size="16" xmlns:xlink="http://www.w3.org/1999/xlink" xlink:href="#SystemUWidget_personality.arc_for_label" startOffset="150.96044211487583">Big 5</textPath></text></g><g class="sector" visibility="visible"><path class="arc1" d="M1.0332957367805792e-14,-168.75A168.75,168.75 0 0,1 6.465419054079998,-168.62609779169753L4.501847341359406,-117.41372735125606A117.5,117.5 0 0,0 7.1947999449907e-15,-117.5Z" style="stroke: rgb(36, 129, 191); fill: rgb(48, 172, 255);"></path><path class="arc2" d="M6.465419054079998,-168.62609779169753A168.75,168.75 0 1,1 -124.19093061153725,114.25049345118968L-86.47368501840371,79.55219544008763A117.5,117.5 0 1,0 4.501847341359406,-117.41372735125606Z" style="stroke: rgb(36, 129, 191); fill: rgb(48, 172, 255); fill-opacity: 0.15;"></path><path class="arc_for_label" id="SystemUWidget_Agreeableness_parent.arc_for_label" d="M9.077694398679755e-15,-148.25A148.25,148.25 0 1,1 -109.10403237428383,100.37117424674886" style="stroke-opacity: 0; fill-opacity: 0;"></path><text class="sector_nonleaf_text"><textPath class="sector_label_path" position-in-sector="outer" font-size="11.428571428571429" xmlns:xlink="http://www.w3.org/1999/xlink" xlink:href="#SystemUWidget_Agreeableness_parent.arc_for_label" startOffset="262.6804840105659">Agreeableness</textPath></text><path class="arc_for_label_number" id="SystemUWidget_Agreeableness_parent.arc_for_label_number" d="M7.822431429553719e-15,-127.75A127.75,127.75 0 1,1 -94.01713413703042,86.49185504230805" style="stroke-opacity: 0; fill-opacity: 0;"></path><text class="sector_nonleaf_text"><textPath class="sector_label_number_path" position-in-sector="inner" font-size="11.428571428571429" xmlns:xlink="http://www.w3.org/1999/xlink" xlink:href="#SystemUWidget_Agreeableness_parent.arc_for_label_number" startOffset="251.13097505724932"> (2%)</textPath></text></g><g class="sector" visibility="visible"><path class="arc1" d="M1.3777276490407723e-14,-225A225,225 0 0,1 153.3885136422589,-164.61155452342513L118.45001886818882,-127.11670043753384A173.75,173.75 0 0,0 1.0639119067592632e-14,-173.75Z" style="stroke: rgb(38, 139, 191); fill: rgb(51, 185, 255);"></path><path class="arc2" d="M153.3885136422589,-164.61155452342513A225,225 0 0,1 157.30481554336262,-160.87322650729877L121.47427422515224,-124.22988046952516A173.75,173.75 0 0,0 118.45001886818882,-127.11670043753384Z" style="stroke: rgb(38, 139, 191); fill: rgb(51, 185, 255); fill-opacity: 0.15;"></path><path class="arc_for_label" id="SystemUWidget_Openness.arc_for_label" d="M1.2522013521281686e-14,-204.5A204.5,204.5 0 0,1 142.97259901607848,-146.21588809218932" style="stroke-opacity: 0; fill-opacity: 0;"></path><text class="sector_nonleaf_text"><textPath class="sector_label_path" position-in-sector="outer" font-size="8.888888888888888" xmlns:xlink="http://www.w3.org/1999/xlink" xlink:href="#SystemUWidget_Openness.arc_for_label" startOffset="62.46591165591467">Openness</textPath></text><path class="arc_for_label_number" id="SystemUWidget_Openness.arc_for_label_number" d="M1.126675055215565e-14,-184A184,184 0 0,1 128.64038248879433,-131.5585496770799" style="stroke-opacity: 0; fill-opacity: 0;"></path><text class="sector_nonleaf_text"><textPath class="sector_label_number_path" position-in-sector="inner" font-size="8.888888888888888" xmlns:xlink="http://www.w3.org/1999/xlink" xlink:href="#SystemUWidget_Openness.arc_for_label_number" startOffset="63.347413826432984"> (97%)</textPath></text></g><g class="sector" visibility="visible"><path class="_bar" d="M1.7424427739118436e-14,-284.5625A284.5625,284.5625 0 0,1 37.928469238550974,-282.02348772304464L30.65599973596916,-227.94782227559944A230,230 0 0,0 1.4083438190194563e-14,-230Z" style="stroke: rgb(238, 238, 238); fill: rgb(46, 168, 213);"></path><text dy="13.39966332007605" class="sector_leaf_text" font-size="13" text-anchor="start" transform="translate(0,-289.5625) rotate(-90)">Adventurousness (97%)</text></g><g class="sector" visibility="visible"><path class="_bar" d="M32.905217107901684,-244.67225488821134A246.875,246.875 0 0,1 65.22323983697378,-238.1033275915492L60.76494243039581,-221.8279102625066A230,230 0 0,0 30.65599973596916,-227.94782227559944Z" style="stroke: rgb(238, 238, 238); fill: rgb(46, 168, 213);"></path><text dy="13.39966332007605" class="sector_leaf_text" font-size="13" text-anchor="start" transform="translate(33.57165188477054,-249.62764232898525) rotate(-82.34042553191489)">Artistic interests (30%)</text></g><g class="sector" visibility="visible"><path class="_bar" d="M61.062162257501015,-222.91293808444277A231.125,231.125 0 0,1 90.22872122216273,-212.7852050580896L89.7895332876038,-211.7494739355786A230,230 0 0,0 60.76494243039581,-221.8279102625066Z" style="stroke: rgb(238, 238, 238); fill: rgb(46, 168, 213);"></path><text dy="13.39966332007605" class="sector_leaf_text" font-size="13" text-anchor="start" transform="translate(62.383139266857405,-227.73528395971468) rotate(-74.68085106382979)">Emotionality (2%)</text></g><g class="sector" visibility="visible"><path class="_bar" d="M111.52933604827092,-263.0181644998722A285.6875,285.6875 0 0,1 145.59110458047843,-245.80597617488107L117.21182779614104,-197.89236322983206A230,230 0 0,0 89.7895332876038,-211.7494739355786Z" style="stroke: rgb(238, 238, 238); fill: rgb(46, 168, 213);"></path><text dy="13.39966332007605" class="sector_leaf_text" font-size="13" text-anchor="start" transform="translate(113.48128242408839,-267.6214139332544) rotate(-67.02127659574468)">Imagination (99%)</text></g><g class="sector" visibility="visible"><path class="_bar" d="M143.87114841173073,-242.9021208448781A282.3125,282.3125 0 0,1 174.96314052708917,-221.55867645648195L142.54247446085634,-180.503858614092A230,230 0 0,0 117.21182779614104,-197.89236322983206Z" style="stroke: rgb(238, 238, 238); fill: rgb(46, 168, 213);"></path><text dy="13.39966332007605" class="sector_leaf_text" font-size="13" text-anchor="start" transform="translate(146.41923162469027,-247.2041287411788) rotate(-59.361702127659576)">Intellect (93%)</text></g><g class="sector" visibility="visible"><path class="_bar" d="M176.3575777772497,-223.32447507335894A284.5625,284.5625 0 0,1 204.5502645435133,-197.82569520016537L165.32944729192377,-159.8942583651677A230,230 0 0,0 142.54247446085634,-180.503858614092Z" style="stroke: rgb(238, 238, 238); fill: rgb(46, 168, 213);"></path><text dy="13.39966332007605" class="sector_leaf_text" font-size="13" text-anchor="start" transform="translate(179.4563272220509,-227.24847199975224) rotate(-51.702127659574465)">Authority-challenging (97%)</text></g><g class="sector" visibility="visible"><path class="arc1" d="M161.73532887253413,-156.41829622679452A225,225 0 0,1 224.49977750344112,-14.994995862134548L173.36371707210176,-11.579469026870568A173.75,173.75 0 0,0 124.89561507379022,-120.78968430846909Z" style="stroke: rgb(38, 139, 191); fill: rgb(51, 185, 255);"></path><path class="arc2" d="M224.49977750344112,-14.994995862134548A225,225 0 0,1 224.9966019178071,1.2365781171564232L173.7473759254177,0.9549131015819046A173.75,173.75 0 0,0 173.36371707210176,-11.579469026870568Z" style="stroke: rgb(38, 139, 191); fill: rgb(51, 185, 255); fill-opacity: 0.15;"></path><path class="arc_for_label" id="SystemUWidget_Conscientiousness.arc_for_label" d="M146.99944335303655,-142.16685145946434A204.5,204.5 0 0,1 204.49691152085137,1.1239121109266157" style="stroke-opacity: 0; fill-opacity: 0;"></path><text class="sector_nonleaf_text"><textPath class="sector_label_path" position-in-sector="outer" font-size="8.888888888888888" xmlns:xlink="http://www.w3.org/1999/xlink" xlink:href="#SystemUWidget_Conscientiousness.arc_for_label" startOffset="45.42909791995275">Conscientiousness</textPath></text>
<path class="arc_for_label_number" id="SystemUWidget_Conscientiousness.arc_for_label_number" d="M132.263557833539,-127.91540669213418A184,184 0 0,1 183.9972211238956,1.0112461046968082" style="stroke-opacity: 0; fill-opacity: 0;">
</path>
<text class="sector_nonleaf_text">
	<textPath class="sector_label_number_path" position-in-sector="inner" font-size="8.888888888888888" xmlns:xlink="http://www.w3.org/1999/xlink" xlink:href="#SystemUWidget_Conscientiousness.arc_for_label_number" startOffset="63.347413826432984"> (91%)
	</textPath>
</text></g><g class="sector" visibility="visible"><path class="_bar" d="M203.7415878991506,-197.0436037190314A283.4375,283.4375 0 0,1 228.18704318334363,-168.1293838967266L185.16611221933948,-136.4313412877517A230,230 0 0,0 165.32944729192377,-159.89425836516773Z" style="stroke: rgb(238, 238, 238); fill: rgb(46, 168, 213);"></path><text dy="13.39966332007605" class="sector_leaf_text" font-size="13" text-anchor="start" transform="translate(207.33570631854025,-200.51956585740464) rotate(-44.04255319148936)">Achievement striving (95%)</text></g><g class="sector" visibility="visible"><path class="_bar" d="M221.84711651496406,-163.45809340698295A275.5625,275.5625 0 0,1 241.65451459145092,-132.43030991363054L201.69848348753445,-110.53380369293727A230,230 0 0,0 185.16611221933948,-136.4313412877517Z" style="stroke: rgb(238, 238, 238); fill: rgb(46, 168, 213);"></path><text dy="13.39966332007605" class="sector_leaf_text" font-size="13" text-anchor="start" transform="translate(225.87246678060185,-166.42399213062976) rotate(-36.38297872340426)">Cautiousness (81%)</text></g><g class="sector" visibility="visible"><path class="_bar" d="M207.12461116831324,-113.50740330315487A236.1875,236.1875 0 0,1 220.4055955703885,-84.88762334706004L214.6315405395686,-82.66378775262793A230,230 0 0,0 201.69848348753445,-110.53380369293727Z" style="stroke: rgb(238, 238, 238); fill: rgb(46, 168, 213);"></path><text dy="13.39966332007605" class="sector_leaf_text" font-size="13" text-anchor="start" transform="translate(211.5093608093466,-115.91031207908831) rotate(-28.723404255319153)">Dutifulness (11%)</text></g><g class="sector" visibility="visible"><path class="_bar" d="M215.15645463327948,-82.86595462484902A230.5625,230.5625 0 0,1 224.2816694143264,-53.449033396056954L223.73449266595856,-53.318634561531475A230,230 0 0,0 214.6315405395686,-82.66378775262793Z" style="stroke: rgb(238, 238, 238); fill: rgb(46, 168, 213);"></path><text dy="13.39966332007605" class="sector_leaf_text" font-size="13" text-anchor="start" transform="translate(219.8223576884875,-84.66299348903661) rotate(-21.06382978723404)">Orderliness (1%)</text></g><g class="sector" visibility="visible"><path class="_bar" d="M272.43322327069575,-64.9241308342996A280.0625,280.0625 0 0,1 278.6559743382242,-28.03304963547399L228.84489747035596,-23.022009073542577A230,230 0 0,0 223.73449266595856,-53.318634561531475Z" style="stroke: rgb(238, 238, 238); fill: rgb(46, 168, 213);"></path><text dy="13.39966332007605" class="sector_leaf_text" font-size="13" text-anchor="start" transform="translate(277.2970165895209,-66.08323158563725) rotate(-13.40425531914893)">Self-discipline (89%)</text></g><g class="sector" visibility="visible"><path class="_bar" d="M238.91904784812706,-24.035477951236572A240.125,240.125 0 0,1 239.99090549072739,8.023771353967913L229.87155965795856,7.6854447117652045A230,230 0 0,0 228.84489747035596,-23.022009073542577Z" style="stroke: rgb(238, 238, 238); fill: rgb(46, 168, 213);"></path><text dy="13.39966332007605" class="sector_leaf_text" font-size="13" text-anchor="start" transform="translate(243.89393692356958,-24.535956409357077) rotate(-5.744680851063819)">Self-efficacy (18%)</text></g><g class="sector" visibility="visible"><path class="arc1" d="M224.87435183930728,7.518369826726781A225,225 0 0,1 224.84113747752963,8.453573079510681L173.62732282987008,6.528036989177692A173.75,173.75 0 0,0 173.65297169813175,5.805852255083458Z" style="stroke: rgb(38, 139, 191); fill: rgb(51, 185, 255);"></path><path class="arc2" d="M224.84113747752963,8.453573079510681A225,225 0 0,1 155.5270522682082,162.59254599384943L120.10144591822744,125.55757718413929A173.75,173.75 0 0,0 173.62732282987008,6.528036989177692Z" style="stroke: rgb(38, 139, 191); fill: rgb(51, 185, 255); fill-opacity: 0.15;"></path><path class="arc_for_label" id="SystemUWidget_Extraversion.arc_for_label" d="M134.8621152307194,140.98881418818516A195.10416666666666,195.10416666666666 0 0 , 0 194.99521342362155,6.519401243268176" style="stroke-opacity: 0; fill-opacity: 0;"></path><text class="sector_nonleaf_text"><textPath class="sector_label_path" position-in-sector="inner" font-size="8.888888888888888" xmlns:xlink="http://www.w3.org/1999/xlink" xlink:href="#SystemUWidget_Extraversion.arc_for_label" startOffset="50.50798206373767">Extraversion</textPath></text><path class="arc_for_label_number" id="SystemUWidget_Extraversion.arc_for_label_number" d="M150.46625136106806,157.30183616389084A217.67857142857142,217.67857142857142 0 0 , 0 217.55701181913935,7.273724459349163" style="stroke-opacity: 0; fill-opacity: 0;"></path><text class="sector_nonleaf_text"><textPath class="sector_label_number_path" position-in-sector="outer" font-size="8.888888888888888" xmlns:xlink="http://www.w3.org/1999/xlink" xlink:href="#SystemUWidget_Extraversion.arc_for_label_number" startOffset="73.33789041568029"> (4%)</textPath></text></g><g class="sector" visibility="visible"><path class="_bar" d="M232.12030317635163,7.760628410032422A232.25,232.25 0 0,1 229.01481648918414,38.62999260193196L226.79615841770658,38.25575155411992A230,230 0 0,0 229.87155965795856,7.685444711765154Z" style="stroke: rgb(238, 238, 238); fill: rgb(46, 168, 213);"></path><text dy="13.39966332007605" class="sector_leaf_text" font-size="13" text-anchor="start" transform="translate(237.1175109950029,7.9277032950707795) rotate(1.9148936170212778)">Activity level (4%)</text></g><g class="sector" visibility="visible"><path class="_bar" d="M228.46015197131473,38.53643233997895A231.6875,231.6875 0 0,1 221.28530982162653,68.64334864644036L219.67357435758987,68.14338360369584A230,230 0 0,0 226.79615841770658,38.25575155411992Z" style="stroke: rgb(238, 238, 238); fill: rgb(46, 168, 213);"></path><text dy="13.39966332007605" class="sector_leaf_text" font-size="13" text-anchor="start" transform="translate(233.3905032412649,39.36807911289459) rotate(9.574468085106389)">Assertiveness (3%)</text></g><g class="sector" visibility="visible"><path class="_bar" d="M221.28530982162653,68.64334864644036A231.6875,231.6875 0 0,1 210.1616260758251,97.52532277011485L208.6309101588984,96.81499535851704A230,230 0 0,0 219.67357435758987,68.14338360369584Z" style="stroke: rgb(238, 238, 238); fill: rgb(46, 168, 213);"></path><text dy="13.39966332007605" class="sector_leaf_text" font-size="13" text-anchor="start" transform="translate(226.06082230766108,70.12472655086852) rotate(17.2340425531915)">Cheerfulness (3%)</text></g><g class="sector" visibility="visible"><path class="_bar" d="M211.69234199275178,98.23565018171267A233.375,233.375 0 0,1 196.709983841895,125.57496916950211L193.86522242586332,123.75894122757572A230,230 0 0,0 208.6309101588984,96.81499535851704Z" style="stroke: rgb(238, 238, 238); fill: rgb(46, 168, 213);"></path><text dy="13.39966332007605" class="sector_leaf_text" font-size="13" text-anchor="start" transform="translate(216.2277965614235,100.34032399385433) rotate(24.893617021276597)">Excitement-seeking (6%)</text></g><g class="sector" visibility="visible"><path class="_bar" d="M194.8134762312072,124.36428387488452A231.125,231.125 0 0,1 176.4991139270021,149.2207371915282L175.64000520588635,148.49440585852454A230,230 0 0,0 193.86522242586332,123.75894122757572Z" style="stroke: rgb(238, 238, 238); fill: rgb(46, 168, 213);"></path><text dy="13.39966332007605" class="sector_leaf_text" font-size="13" text-anchor="start" transform="translate(199.02793758829122,127.05469564070135) rotate(32.553191489361694)">Outgoing (2%)</text></g><g class="sector" visibility="visible"><path class="_bar" d="M176.92866828756,149.58390285803003A231.6875,231.6875 0 0,1 155.41243716413132,171.8315222273112L154.28048793202137,170.57998429903026A230,230 0 0,0 175.64000520588635,148.49440585852454Z" style="stroke: rgb(238, 238, 238); fill: rgb(46, 168, 213);"></path><text dy="13.39966332007605" class="sector_leaf_text" font-size="13" text-anchor="start" transform="translate(180.74692927029665,152.81204211582406) rotate(40.212765957446805)">Gregariousness (3%)</text></g><g class="sector" visibility="visible"><path class="arc1" d="M150.92656428132526,166.87172377079048A225,225 0 0,1 150.92656428132526,166.87172377079048L116.54884686169005,128.86205335633264A173.75,173.75 0 0,0 116.54884686169005,128.86205335633264Z" style="stroke: rgb(38, 139, 191); fill: rgb(51, 185, 255);"></path><path class="arc2" d="M150.92656428132526,166.87172377079048A225,225 0 0,1 -8.754143846973852,224.82963542537377L-6.760144415163142,173.6184406895942A173.75,173.75 0 0,0 116.54884686169005,128.86205335633264Z" style="stroke: rgb(38, 139, 191); fill: rgb(51, 185, 255); fill-opacity: 0.15;"></path><path class="arc_for_label" id="SystemUWidget_Agreeableness.arc_for_label" d="M-7.590977511750937,194.956438496169A195.10416666666666,195.10416666666666 0 0 , 0 130.87289578653804,144.6994160290234" style="stroke-opacity: 0; fill-opacity: 0;"></path><text class="sector_nonleaf_text"><textPath class="sector_label_path" position-in-sector="inner" font-size="8.888888888888888" xmlns:xlink="http://www.w3.org/1999/xlink" xlink:href="#SystemUWidget_Agreeableness.arc_for_label" startOffset="45.56005840345935">Agreeableness</textPath></text><path class="arc_for_label_number" id="SystemUWidget_Agreeableness.arc_for_label_number" d="M-8.469286785286608,217.51375046311952A217.67857142857142,217.67857142857142 0 0 , 0 146.01546179280592,161.44177085443934" style="stroke-opacity: 0; fill-opacity: 0;"></path><text class="sector_nonleaf_text"><textPath class="sector_label_number_path" position-in-sector="outer" font-size="8.888888888888888" xmlns:xlink="http://www.w3.org/1999/xlink" xlink:href="#SystemUWidget_Agreeableness.arc_for_label_number" startOffset="73.33789041568029"> (2%)</textPath></text></g><g class="sector" visibility="visible"><path class="_bar" d="M155.035120753428,171.41434291788423A231.125,231.125 0 0,1 130.8045221771588,190.54905563398938L130.16783169603687,189.6215588786049A230,230 0 0,0 154.28048793202137,170.57998429903026Z" style="stroke: rgb(238, 238, 238); fill: rgb(46, 168, 213);"></path><text dy="13.39966332007605" class="sector_leaf_text" font-size="13" text-anchor="start" transform="translate(158.38904440412415,175.12260344612397) rotate(47.87234042553192)">Altruism (2%)</text></g><g class="sector" visibility="visible"><path class="_bar" d="M132.71459362052454,193.33154590014283A234.5,234.5 0 0,1 105.76187295617585,209.29566700914216L103.73232741970338,205.27933224777271A230,230 0 0,0 130.16783169603687,189.6215588786049Z" style="stroke: rgb(238, 238, 238); fill: rgb(46, 168, 213);"></path><text dy="13.39966332007605" class="sector_leaf_text" font-size="13" text-anchor="start" transform="translate(135.54432909217752,197.45375370185158) rotate(55.53191489361703)">Cooperation (8%)</text></g><g class="sector" visibility="visible"><path class="_bar" d="M104.2397138038215,206.28341593811507A231.125,231.125 0 0,1 75.81474526817036,218.33664379788024L75.44571730310084,217.27389106982136A230,230 0 0,0 103.73232741970338,205.27933224777271Z" style="stroke: rgb(238, 238, 238); fill: rgb(46, 168, 213);"></path><text dy="13.39966332007605" class="sector_leaf_text" font-size="13" text-anchor="start" transform="translate(106.49476439990202,210.74601011741444) rotate(63.19148936170214)">Modesty (2%)</text></g><g class="sector" visibility="visible"><path class="_bar" d="M75.81474526817036,218.33664379788024A231.125,231.125 0 0,1 46.03686080712405,226.49364907658114L45.81277657388224,225.39119215841498A230,230 0 0,0 75.44571730310084,217.27389106982136Z" style="stroke: rgb(238, 238, 238); fill: rgb(46, 168, 213);"></path><text dy="13.39966332007605" class="sector_leaf_text" font-size="13" text-anchor="start" transform="translate(77.45486955736821,223.05998925591982) rotate(70.85106382978725)">Uncompromising (2%)</text></g><g class="sector" visibility="visible"><path class="_bar" d="M45.924818690503145,225.94242061749804A230.5625,230.5625 0 0,1 15.399876617859505,230.04762595255076L15.362305761377874,229.48638208332522A230,230 0 0,0 45.81277657388224,225.39119215841498Z" style="stroke: rgb(238, 238, 238); fill: rgb(46, 168, 213);"></path><text dy="13.39966332007605" class="sector_leaf_text" font-size="13" text-anchor="start" transform="translate(46.92074861602234,230.842229142681) rotate(78.51063829787236)">Sympathy (1%)</text></g><g class="sector" visibility="visible"><path class="_bar" d="M15.512589187304396,231.7313575602273A232.25,232.25 0 0,1 -15.512589187304577,231.7313575602273L-15.362305761378053,229.48638208332522A230,230 0 0,0 15.362305761377874,229.48638208332522Z" style="stroke: rgb(238, 238, 238); fill: rgb(46, 168, 213);"></path><text dy="13.39966332007605" class="sector_leaf_text" font-size="13" text-anchor="start" transform="translate(15.846552356030019,236.7201919533431) rotate(86.17021276595747)">Trust (4%)</text></g><g class="sector" visibility="visible"><path class="arc1" d="M-15.028342592652344,224.49754769020947A225,225 0 0,1 -17.761578536659417,224.29785181290987L-13.715885647753662,173.20778556663595A173.75,173.75 0 0,0 -11.605220113214864,173.36199516077286Z" style="stroke: rgb(38, 139, 191); fill: rgb(51, 185, 255);"></path><path class="arc2" d="M-17.761578536659417,224.29785181290987A225,225 0 0,1 -167.69868129458973,150.00717413529134L-129.5006483330443,115.83887336003052A173.75,173.75 0 0,0 -13.715885647753662,173.20778556663595Z" style="stroke: rgb(38, 139, 191); fill: rgb(51, 185, 255); fill-opacity: 0.15;"></path><path class="arc_for_label" id="SystemUWidget_Neuroticism.arc_for_label" d="M-145.4164954003549,130.07566534972253A195.10416666666666,195.10416666666666 0 0 , 0 -13.031521146313814,194.66847538137142" style="stroke-opacity: 0; fill-opacity: 0;"></path><text class="sector_nonleaf_text"><textPath class="sector_label_path" position-in-sector="inner" font-size="8.888888888888888" xmlns:xlink="http://www.w3.org/1999/xlink" xlink:href="#SystemUWidget_Neuroticism.arc_for_label" startOffset="42.846404839006226">Emotional range</textPath></text><path class="arc_for_label_number" id="SystemUWidget_Neuroticism.arc_for_label_number" d="M-162.2418194429404,145.12598831025406A217.67857142857142,217.67857142857142 0 0 , 0 -14.539325095589845,217.1924687574328" style="stroke-opacity: 0; fill-opacity: 0;"></path><text class="sector_nonleaf_text"><textPath class="sector_label_number_path" position-in-sector="outer" font-size="8.888888888888888" xmlns:xlink="http://www.w3.org/1999/xlink" xlink:href="#SystemUWidget_Neuroticism.arc_for_label_number" startOffset="73.33789041568029"> (5%)</textPath></text></g><g class="sector" visibility="visible"><path class="_bar" d="M-15.399876617859581,230.04762595255076A230.5625,230.5625 0 0,1 -45.924818690503216,225.94242061749804L-45.81277657388231,225.39119215841498A230,230 0 0,0 -15.36230576137795,229.48638208332522Z" style="stroke: rgb(238, 238, 238); fill: rgb(46, 168, 213);"></path><text dy="-8.39966332007605" class="sector_leaf_text" font-size="13" text-anchor="end" transform="translate(-15.733839786585172,235.0364603456665) rotate(273.82978723404256)">Fiery (1%)</text></g><g class="sector" visibility="visible"><path class="_bar" d="M-46.48502927360775,228.69856291291345A233.375,233.375 0 0,1 -76.55280119830945,220.46214925399804L-75.4457173031009,217.27389106982133A230,230 0 0,0 -45.81277657388231,225.39119215841498Z" style="stroke: rgb(238, 238, 238); fill: rgb(46, 168, 213);"></path><text dy="-8.39966332007605" class="sector_leaf_text" font-size="13" text-anchor="end" transform="translate(-47.48095919912692,233.5983714380964) rotate(281.48936170212767)">Prone to worry (6%)</text></g><g class="sector" visibility="visible"><path class="_bar" d="M-77.659885093518,223.65040743817477A236.75,236.75 0 0,1 -106.77664572441213,211.30383438982685L-103.73232741970345,205.27933224777266A230,230 0 0,0 -75.4457173031009,217.27389106982133Z" style="stroke: rgb(238, 238, 238); fill: rgb(46, 168, 213);"></path><text dy="-8.39966332007605" class="sector_leaf_text" font-size="13" text-anchor="end" transform="translate(-79.30000938271583,228.37375289621437) rotate(289.1489361702128)">Melancholy (12%)</text></g><g class="sector" visibility="visible"><path class="_bar" d="M-109.56727083706177,216.82629468670987A242.9375,242.9375 0 0,1 -137.489772228939,200.28777156552636L-130.16783169603693,189.62155887860484A230,230 0 0,0 -103.73232741970345,205.27933224777266Z" style="stroke: rgb(238, 238, 238); fill: rgb(46, 168, 213);"></path><text dy="-8.39966332007605" class="sector_leaf_text" font-size="13" text-anchor="end" transform="translate(-111.82232143314226,221.2888888660093) rotate(296.8085106382979)">Immoderation (23%)</text></g><g class="sector" visibility="visible"><path class="_bar" d="M-131.75955789884173,191.94030076706605A232.8125,232.8125 0 0,1 -156.16706998553798,172.6658808461651L-154.28048793202143,170.57998429903023A230,230 0 0,0 -130.16783169603693,189.62155887860484Z" style="stroke: rgb(238, 238, 238); fill: rgb(46, 168, 213);"></path><text dy="-8.39966332007605" class="sector_leaf_text" font-size="13" text-anchor="end" transform="translate(-134.5892933704947,196.06250856877486) rotate(304.468085106383)">Self-consciousness (5%)</text></g><g class="sector" visibility="visible"><path class="_bar" d="M-156.5443863962413,173.08306015559208A233.375,233.375 0 0,1 -178.2173313692336,150.67339985753554L-175.64000520588635,148.49440585852457A230,230 0 0,0 -154.28048793202143,170.57998429903023Z" style="stroke: rgb(238, 238, 238); fill: rgb(46, 168, 213);"></path><text dy="-8.39966332007605" class="sector_leaf_text" font-size="13" text-anchor="end" transform="translate(-159.8983100469374,176.79132068383186) rotate(312.1276595744681)">Susceptible to stress (6%)</text></g><g class="sector" visibility="hidden"><path class="arc1" d="M-85.91087211157485,72.63313330036529A112.5,112.5 0 0,1 -76.86524912379777,-82.1461105417445L-41.8488578562899,-44.72399351717201A61.25,61.25 0 0,0 -46.773697038524084,39.544705907976656Z" style="stroke: rgb(54, 99, 40); fill: rgb(72, 132, 54);"></path><path class="arc2" d="M-76.86524912379782,-82.14611054174445A112.5,112.5 0 0,1 -76.86524912379777,-82.1461105417445L-41.8488578562899,-44.72399351717201A61.25,61.25 0 0,0 -41.848857856289925,-44.72399351717198Z" style="stroke: rgb(54, 99, 40); fill: rgb(72, 132, 54); fill-opacity: 0.15;"></path><path class="arc_for_label" id="SystemUWidget_needs.arc_for_label" d="M-72.8651470872246,61.603657502902415A95.41666666666667,95.41666666666667 0 0,1 -65.19311870129519,-69.67207153355362" style="stroke-opacity: 0; fill-opacity: 0;"></path><text class="sector_nonleaf_text" visibility="visible"><textPath class="sector_label_path" position-in-sector="center" font-size="16" xmlns:xlink="http://www.w3.org/1999/xlink" xlink:href="#SystemUWidget_needs.arc_for_label" startOffset="44.552926845950324">Needs</textPath></text></g><g class="sector" visibility="visible"><path class="arc1" d="M-128.86630816736226,108.94969995054792A168.75,168.75 0 0,1 -134.59606788405503,101.7863498223158L-93.7187435637124,70.87345839479767A117.5,117.5 0 0,0 -89.7291330943115,75.8612725581593Z" style="stroke: rgb(86, 159, 64); fill: rgb(115, 212, 86);"></path><path class="arc2" d="M-134.59606788405503,101.7863498223158A168.75,168.75 0 0,1 -110.03685474086406,-127.93925550329728L-76.6182544121572,-89.08362975785144A117.5,117.5 0 0,0 -93.7187435637124,70.87345839479767Z" style="stroke: rgb(86, 159, 64); fill: rgb(115, 212, 86); fill-opacity: 0.15;"></path><path class="arc_for_label" id="SystemUWidget_Self-expression_parent.arc_for_label" d="M-113.21143813814196,95.71432899359247A148.25,148.25 0 0,1 -96.6694146093813,-112.39700520511894" style="stroke-opacity: 0; fill-opacity: 0;"></path><text class="sector_nonleaf_text"><textPath class="sector_label_path" position-in-sector="outer" font-size="11.428571428571429" xmlns:xlink="http://www.w3.org/1999/xlink" xlink:href="#SystemUWidget_Self-expression_parent.arc_for_label" startOffset="80.94524353098419">Self-expression</textPath></text><path class="arc_for_label_number" id="SystemUWidget_Self-expression_parent.arc_for_label_number" d="M-97.55656810892165,82.47895803663702A127.75,127.75 0 0,1 -83.30197447789857,-96.85475490694061" style="stroke-opacity: 0; fill-opacity: 0;"></path><text class="sector_nonleaf_text"><textPath class="sector_label_number_path" position-in-sector="inner" font-size="11.428571428571429" xmlns:xlink="http://www.w3.org/1999/xlink" xlink:href="#SystemUWidget_Self-expression_parent.arc_for_label_number" startOffset="93.21581241669857"> (6%)</textPath></text></g><g class="sector" visibility="visible"><path class="_bar" d="M-158.88738514412927,134.33094486495335A208.0625,208.0625 0 0,1 -175.37427322165732,111.95475960505426L-146.45253215866848,93.49180886213603A173.75,173.75 0 0,0 -132.68456915009892,112.17783920834194Z" style="stroke: rgb(238, 238, 238); fill: rgb(103, 190, 77);"></path><text dy="-8.39966332007605" class="sector_leaf_text" font-size="13" text-anchor="end" transform="translate(-162.7056461268659,137.55908412274738) rotate(319.7872340425532)">Challenge (61%)</text></g><g class="sector" visibility="visible"><path class="_bar" d="M-158.77983162813914,101.36126327715036A188.375,188.375 0 0,1 -170.87325087470643,79.29358587243762L-157.6070462613417,73.13741497192322A173.75,173.75 0 0,0 -146.45253215866848,93.49180886213603Z" style="stroke: rgb(238, 238, 238); fill: rgb(103, 190, 77);"></path><text dy="-8.39966332007605" class="sector_leaf_text" font-size="13" text-anchor="end" transform="translate(-162.99429298522313,104.05167504296722) rotate(327.44680851063833)">Closeness (26%)</text></g><g class="sector" visibility="visible"><path class="_bar" d="M-183.6292168490956,85.21298096908608A202.4375,202.4375 0 0,1 -193.34856177832432,59.97728790553553L-165.94905888970104,51.47788217887891A173.75,173.75 0 0,0 -157.6070462613417,73.13741497192322Z" style="stroke: rgb(238, 238, 238); fill: rgb(103, 190, 77);"></path><text dy="-8.39966332007605" class="sector_leaf_text" font-size="13" text-anchor="end" transform="translate(-188.1646714177673,87.31765478122776) rotate(335.1063829787234)">Curiosity (51%)</text></g><g class="sector" visibility="visible"><path class="_bar" d="M-172.3960007458477,53.47774234985694A180.5,180.5 0 0,1 -177.98568084520016,30.022448502254964L-171.32970663076748,28.899725358818838A173.75,173.75 0 0,0 -165.94905888970104,51.47788217887891Z" style="stroke: rgb(238, 238, 238); fill: rgb(103, 190, 77);"></path><text dy="-8.39966332007605" class="sector_leaf_text" font-size="13" text-anchor="end" transform="translate(-177.17151323188224,54.95912025428512) rotate(342.76595744680856)">Excitement (12%)</text></g><g class="sector" visibility="visible"><path class="_bar" d="M-207.3829002922779,34.98114238576453A210.3125,210.3125 0 0,1 -210.19505387201917,7.02758735192654L-173.65297169813175,5.805852255083441A173.75,173.75 0 0,0 -171.32970663076748,28.899725358818838Z" style="stroke: rgb(238, 238, 238); fill: rgb(103, 190, 77);"></path><text dy="-8.39966332007605" class="sector_leaf_text" font-size="13" text-anchor="end" transform="translate(-212.31325156222803,35.81278915868019) rotate(350.4255319148936)">Harmony (65%)</text></g><g class="sector" visibility="visible"><path class="_bar" d="M-213.00598327001052,7.121566974760625A213.125,213.125 0 0,1 -212.05464684073743,-21.33289427738599L-172.87739537162759,-17.39162641968711A173.75,173.75 0 0,0 -173.65297169813175,5.805852255083441Z" style="stroke: rgb(238, 238, 238); fill: rgb(103, 190, 77);"></path><text dy="-8.39966332007605" class="sector_leaf_text" font-size="13" text-anchor="end" transform="translate(-218.0031910886618,7.288641859799011) rotate(358.0851063829787)">Ideal (70%)</text></g><g class="sector" visibility="visible"><path class="_bar" d="M-214.85302194567385,-21.614413410078765A215.9375,215.9375 0 0,1 -210.05507395676273,-50.058663698394426L-169.0168178291752,-40.278751108983066A173.75,173.75 0 0,0 -172.87739537162759,-17.39162641968711Z" style="stroke: rgb(238, 238, 238); fill: rgb(103, 190, 77);"></path><text dy="-8.39966332007605" class="sector_leaf_text" font-size="13" text-anchor="end" transform="translate(-219.82791102111636,-22.114891868199248) rotate(365.74468085106383)">Liberty (75%)</text></g><g class="sector" visibility="visible"><path class="_bar" d="M-182.69623653837104,-43.538721972120186A187.8125,187.8125 0 0,1 -175.26298351125098,-67.50127233604542L-162.14013116847843,-62.44710053051789A173.75,173.75 0 0,0 -169.0168178291752,-40.278751108983066Z" style="stroke: rgb(238, 238, 238); fill: rgb(103, 190, 77);"></path><text dy="-8.39966332007605" class="sector_leaf_text" font-size="13" text-anchor="end" transform="translate(-187.56002985719624,-44.69782272345782) rotate(373.40425531914894)">Love (25%)</text></g><g class="sector" visibility="visible"><path class="_bar" d="M-207.28274322761595,-79.8334515415326A222.125,222.125 0 0,1 -194.79250280290688,-106.74922237084219L-152.37005002590917,-83.50107996368635A173.75,173.75 0 0,0 -162.14013116847843,-62.44710053051789Z" style="stroke: rgb(238, 238, 238); fill: rgb(103, 190, 77);"></path><text dy="-8.39966332007605" class="sector_leaf_text" font-size="13" text-anchor="end" transform="translate(-211.94864628282397,-81.63049040572014) rotate(381.06382978723406)">Practicality (86%)</text></g><g class="sector" visibility="visible"><path class="_bar" d="M-155.32975603360666,-85.12304338744141A177.125,177.125 0 0,1 -142.59803316021956,-105.0669622851871L-139.88092173091403,-103.06498064672553A173.75,173.75 0 0,0 -152.37005002590917,-83.50107996368635Z" style="stroke: rgb(238, 238, 238); fill: rgb(103, 190, 77);"></path><text dy="-8.39966332007605" class="sector_leaf_text" font-size="13" text-anchor="end" transform="translate(-159.71450567464004,-87.52595216337482) rotate(388.72340425531917)">Self-expression (6%)</text></g><g class="sector" visibility="visible"><path class="_bar" d="M-167.05203602396926,-123.08479703134127A207.5,207.5 0 0,1 -149.15591440467028,-144.25242874248832L-124.89561507379017,-120.78968430846913A173.75,173.75 0 0,0 -139.88092173091403,-103.06498064672553Z" style="stroke: rgb(238, 238, 238); fill: rgb(103, 190, 77);"></path><text dy="-8.39966332007605" class="sector_leaf_text" font-size="13" text-anchor="end" transform="translate(-171.0773862896071,-126.05069575498803) rotate(396.3829787234043)">Stability (60%)</text></g><g class="sector" visibility="visible"><path class="_bar" d="M-138.64311802795558,-134.08523948774666A192.875,192.875 0 0,1 -119.53425983320716,-151.36818143562178L-107.68154320684249,-136.3588931921674A173.75,173.75 0 0,0 -124.89561507379017,-120.78968430846913Z" style="stroke: rgb(238, 238, 238); fill: rgb(103, 190, 77);"></path><text dy="-8.39966332007605" class="sector_leaf_text" font-size="13" text-anchor="end" transform="translate(-142.23723644734523,-137.5612016261199) rotate(404.0425531914894)">Structure (34%)</text></g><g class="sector" visibility="hidden"><path class="arc1" d="M-69.72186250802758,-88.28993084384933A112.5,112.5 0 0,1 -9.413757374885526,-112.10544666556923L-5.125267904104342,-61.03518762903214A61.25,61.25 0 0,0 -37.95968069881502,-48.068962348317974Z" style="stroke: rgb(160, 30, 30); fill: rgb(213, 40, 41);"></path><path class="arc2" d="M-9.413757374885526,-112.10544666556923A112.5,112.5 0 0,1 -9.413757374885526,-112.10544666556923L-5.125267904104342,-61.03518762903214A61.25,61.25 0 0,0 -5.125267904104342,-61.03518762903214Z" style="stroke: rgb(160, 30, 30); fill: rgb(213, 40, 41); fill-opacity: 0.15;"></path><path class="arc_for_label" id="SystemUWidget_values.arc_for_label" d="M-59.1344685716234,-74.88294134533889A95.41666666666667,95.41666666666667 0 0,1 -7.984260884625132,-95.08202698672353" style="stroke-opacity: 0; fill-opacity: 0;"></path><text class="sector_nonleaf_text" visibility="visible"><textPath class="sector_label_path" position-in-sector="center" font-size="16" xmlns:xlink="http://www.w3.org/1999/xlink" xlink:href="#SystemUWidget_values.arc_for_label" startOffset="3.738198685812641">Values</textPath></text></g><g class="sector" visibility="visible"><path class="arc1" d="M-104.58279376204138,-132.434896265774A168.75,168.75 0 0,1 -104.58279376204138,-132.434896265774L-72.82061195282881,-92.21392777024265A117.5,117.5 0 0,0 -72.82061195282881,-92.21392777024265Z" style="stroke: rgb(191, 48, 48); fill: rgb(255, 64, 65);"></path><path class="arc2" d="M-104.58279376204138,-132.434896265774A168.75,168.75 0 0,1 -7.066516566802479,-168.60197757918235L-4.920389313180985,-117.39693253661586A117.5,117.5 0 0,0 -72.82061195282881,-92.21392777024265Z" style="stroke: rgb(191, 48, 48); fill: rgb(255, 64, 65); fill-opacity: 0.15;"></path><path class="arc_for_label" id="SystemUWidget_Openness to change_parent.arc_for_label" d="M-91.87792103835635,-116.34650886756145A148.25,148.25 0 0,1 -6.208065665353881,-148.11995956215574" style="stroke-opacity: 0; fill-opacity: 0;"></path><text class="sector_nonleaf_text"><textPath class="sector_label_path" position-in-sector="outer" font-size="11.428571428571429" xmlns:xlink="http://www.w3.org/1999/xlink" xlink:href="#SystemUWidget_Openness to change_parent.arc_for_label" startOffset="3.7651442212841033">Openness to change</textPath></text><path class="arc_for_label_number" id="SystemUWidget_Openness to change_parent.arc_for_label_number" d="M-79.17304831467132,-100.25812146934891A127.75,127.75 0 0,1 -5.349614763905284,-127.63794154512915" style="stroke-opacity: 0; fill-opacity: 0;"></path><text class="sector_nonleaf_text"><textPath class="sector_label_number_path" position-in-sector="inner" font-size="11.428571428571429" xmlns:xlink="http://www.w3.org/1999/xlink" xlink:href="#SystemUWidget_Openness to change_parent.arc_for_label_number" startOffset="31.804360278706596"> (4%)</textPath></text></g><g class="sector" visibility="visible"><path class="_bar" d="M-138.70777202291487,-175.64791241768026A223.8125,223.8125 0 0,1 -114.05857482010359,-192.5686284581599L-88.54589165034571,-149.49477439644917A173.75,173.75 0 0,0 -107.6815432068426,-136.3588931921673Z" style="stroke: rgb(238, 238, 238); fill: rgb(213, 57, 58);"></path><text dy="-8.39966332007605" class="sector_leaf_text" font-size="13" text-anchor="end" transform="translate(-141.80652146771612,-179.57190934407353) rotate(411.70212765957444)">Conservation (89%)</text></g><g class="sector" visibility="visible"><path class="_bar" d="M-89.69252909617752,-151.4306779497845A176,176 0 0,1 -68.70851242877515,-162.03438005505143L-67.83013655965728,-159.96291781002947A173.75,173.75 0 0,0 -88.54589165034571,-149.49477439644917Z" style="stroke: rgb(238, 238, 238); fill: rgb(213, 57, 58);"></path><text dy="-8.39966332007605" class="sector_leaf_text" font-size="13" text-anchor="end" transform="translate(-92.24061230913713,-155.7326858460852) rotate(419.36170212765956)">Openness to change (4%)</text></g><g class="sector" visibility="visible"><path class="_bar" d="M-72.66120383980554,-171.35596015765026A186.125,186.125 0 0,1 -49.17336917329315,-179.5118252069958L-45.903951075135986,-167.5765191656979A173.75,173.75 0 0,0 -67.83013655965728,-159.96291781002947Z" style="stroke: rgb(238, 238, 238); fill: rgb(213, 57, 58);"></path><text dy="-8.39966332007605" class="sector_leaf_text" font-size="13" text-anchor="end" transform="translate(-74.61315021562302,-175.95920959103242) rotate(427.0212765957447)">Hedonism (22%)</text></g><g class="sector" visibility="visible"><path class="_bar" d="M-59.72467303552765,-218.03031288572998A226.0625,226.0625 0 0,1 -30.131182349184932,-224.04545466598995L-23.158608496194116,-172.19971356689302A173.75,173.75 0 0,0 -45.903951075135986,-167.5765191656979Z" style="stroke: rgb(238, 238, 238); fill: rgb(213, 57, 58);"></path><text dy="-8.39966332007605" class="sector_leaf_text" font-size="13" text-anchor="end" transform="translate(-61.04565004488409,-222.85265876100186) rotate(434.6808510638298)">Self-enhancement (93%)</text></g><g class="sector" visibility="visible"><path class="_bar" d="M-23.458504145785117,-174.42963791524127A176,176 0 0,1 -3.2330675497490123e-14,-176L-3.191735720277789e-14,-173.75A173.75,173.75 0 0,0 -23.158608496194116,-172.19971356689302Z" style="stroke: rgb(238, 238, 238); fill: rgb(213, 57, 58);"></path><text dy="-8.39966332007605" class="sector_leaf_text" font-size="13" text-anchor="end" transform="translate(-24.124938922654025,-179.38502535601518) rotate(442.3404255319149)">Self-transcendence (4%)</text></g><defs><pattern id="user_icon_SystemUWidget" height="1" width="1" patternUnits="objectBoundingBox"><image width="133.53437876960194" height="133.53437876960194" x="-12.484921592279854" y="-12.484921592279854" xmlns:xlink="http://www.w3.org/1999/xlink" xlink:href="http://watson-um-demo.mybluemix.net/images/app.png" opacity="1"></image></pattern></defs><circle r="54.28226779252112" stroke-width="0" fill="url(#user_icon_SystemUWidget)"></circle></g>
</g>

</svg>